<mxfile host="Electron" agent="Mozilla/5.0 (Windows NT 10.0; Win64; x64) AppleWebKit/537.36 (KHTML, like Gecko) draw.io/25.0.2 Chrome/128.0.6613.186 Electron/32.2.5 Safari/537.36" version="25.0.2" pages="3">
  <diagram id="C5RBs43oDa-KdzZeNtuy" name="ER diagram">
    <mxGraphModel dx="1793" dy="1045" grid="1" gridSize="10" guides="1" tooltips="1" connect="1" arrows="1" fold="1" page="1" pageScale="1" pageWidth="827" pageHeight="1169" math="0" shadow="0">
      <root>
        <mxCell id="WIyWlLk6GJQsqaUBKTNV-0" />
        <mxCell id="WIyWlLk6GJQsqaUBKTNV-1" parent="WIyWlLk6GJQsqaUBKTNV-0" />
        <mxCell id="vCmYuKzOBuhRr1PD6FDP-155" value="&lt;span style=&quot;font-size: 18px;&quot;&gt;PROCEED&lt;/span&gt;" style="rhombus;whiteSpace=wrap;html=1;" parent="WIyWlLk6GJQsqaUBKTNV-1" vertex="1">
          <mxGeometry x="660" y="450" width="170" height="100" as="geometry" />
        </mxCell>
        <mxCell id="vCmYuKzOBuhRr1PD6FDP-6" value="&lt;font style=&quot;font-size: 18px;&quot;&gt;Club&lt;/font&gt;" style="rounded=0;whiteSpace=wrap;html=1;" parent="WIyWlLk6GJQsqaUBKTNV-1" vertex="1">
          <mxGeometry x="680" y="350" width="130" height="50" as="geometry" />
        </mxCell>
        <mxCell id="vCmYuKzOBuhRr1PD6FDP-9" value="&lt;font style=&quot;font-size: 18px;&quot;&gt;MANAGES&lt;/font&gt;" style="rhombus;whiteSpace=wrap;html=1;" parent="WIyWlLk6GJQsqaUBKTNV-1" vertex="1">
          <mxGeometry x="960" y="445" width="150" height="85" as="geometry" />
        </mxCell>
        <mxCell id="vCmYuKzOBuhRr1PD6FDP-25" value="N" style="text;html=1;align=center;verticalAlign=middle;resizable=0;points=[];autosize=1;strokeColor=none;fillColor=none;" parent="WIyWlLk6GJQsqaUBKTNV-1" vertex="1">
          <mxGeometry x="950" y="453" width="30" height="30" as="geometry" />
        </mxCell>
        <mxCell id="vCmYuKzOBuhRr1PD6FDP-33" value="&lt;font style=&quot;font-size: 17px;&quot;&gt;Type&lt;/font&gt;&lt;div&gt;&lt;font style=&quot;font-size: 10px;&quot;&gt;(study club, non-study club)&lt;/font&gt;&lt;/div&gt;" style="ellipse;whiteSpace=wrap;html=1;" parent="WIyWlLk6GJQsqaUBKTNV-1" vertex="1">
          <mxGeometry x="320" y="247.5" width="135" height="70" as="geometry" />
        </mxCell>
        <mxCell id="vCmYuKzOBuhRr1PD6FDP-34" value="" style="endArrow=none;html=1;rounded=0;exitX=0;exitY=0;exitDx=0;exitDy=0;entryX=1;entryY=0.5;entryDx=0;entryDy=0;" parent="WIyWlLk6GJQsqaUBKTNV-1" source="vCmYuKzOBuhRr1PD6FDP-6" target="vCmYuKzOBuhRr1PD6FDP-33" edge="1">
          <mxGeometry width="50" height="50" relative="1" as="geometry">
            <mxPoint x="600" y="360" as="sourcePoint" />
            <mxPoint x="650" y="310" as="targetPoint" />
          </mxGeometry>
        </mxCell>
        <mxCell id="vCmYuKzOBuhRr1PD6FDP-42" value="&lt;font style=&quot;font-size: 15px;&quot;&gt;RoomNumber&lt;/font&gt;" style="ellipse;whiteSpace=wrap;html=1;" parent="WIyWlLk6GJQsqaUBKTNV-1" vertex="1">
          <mxGeometry x="720" y="53.13" width="120" height="55" as="geometry" />
        </mxCell>
        <mxCell id="vCmYuKzOBuhRr1PD6FDP-46" value="&lt;span style=&quot;font-size: 18px;&quot;&gt;EMPLOYEE&lt;/span&gt;" style="rounded=0;whiteSpace=wrap;html=1;" parent="WIyWlLk6GJQsqaUBKTNV-1" vertex="1">
          <mxGeometry x="1753" y="850.12" width="150" height="45" as="geometry" />
        </mxCell>
        <mxCell id="vCmYuKzOBuhRr1PD6FDP-60" value="&lt;font style=&quot;font-size: 15px;&quot;&gt;Field of&amp;nbsp;&lt;/font&gt;&lt;div&gt;&lt;font style=&quot;font-size: 15px;&quot;&gt;Reasearch&amp;nbsp;&lt;/font&gt;&lt;/div&gt;" style="ellipse;whiteSpace=wrap;html=1;" parent="WIyWlLk6GJQsqaUBKTNV-1" vertex="1">
          <mxGeometry x="475" y="139.38" width="120" height="60" as="geometry" />
        </mxCell>
        <mxCell id="vCmYuKzOBuhRr1PD6FDP-61" value="" style="endArrow=none;html=1;rounded=0;exitX=0.5;exitY=0;exitDx=0;exitDy=0;entryX=0.623;entryY=1.004;entryDx=0;entryDy=0;entryPerimeter=0;" parent="WIyWlLk6GJQsqaUBKTNV-1" source="vCmYuKzOBuhRr1PD6FDP-6" target="vCmYuKzOBuhRr1PD6FDP-78" edge="1">
          <mxGeometry width="50" height="50" relative="1" as="geometry">
            <mxPoint x="725" y="365" as="sourcePoint" />
            <mxPoint x="610" y="260" as="targetPoint" />
          </mxGeometry>
        </mxCell>
        <mxCell id="vCmYuKzOBuhRr1PD6FDP-62" value="" style="endArrow=none;html=1;rounded=0;entryX=0.5;entryY=1;entryDx=0;entryDy=0;exitX=0.5;exitY=0;exitDx=0;exitDy=0;" parent="WIyWlLk6GJQsqaUBKTNV-1" source="vCmYuKzOBuhRr1PD6FDP-6" target="vCmYuKzOBuhRr1PD6FDP-42" edge="1">
          <mxGeometry width="50" height="50" relative="1" as="geometry">
            <mxPoint x="726" y="360" as="sourcePoint" />
            <mxPoint x="680" y="255" as="targetPoint" />
          </mxGeometry>
        </mxCell>
        <mxCell id="vCmYuKzOBuhRr1PD6FDP-63" value="" style="endArrow=none;html=1;rounded=0;exitX=0.5;exitY=0;exitDx=0;exitDy=0;entryX=0.5;entryY=1;entryDx=0;entryDy=0;" parent="WIyWlLk6GJQsqaUBKTNV-1" source="vCmYuKzOBuhRr1PD6FDP-6" target="vCmYuKzOBuhRr1PD6FDP-60" edge="1">
          <mxGeometry width="50" height="50" relative="1" as="geometry">
            <mxPoint x="745" y="385" as="sourcePoint" />
            <mxPoint x="630" y="280" as="targetPoint" />
          </mxGeometry>
        </mxCell>
        <mxCell id="vCmYuKzOBuhRr1PD6FDP-67" value="" style="endArrow=none;html=1;rounded=0;exitX=0.5;exitY=0;exitDx=0;exitDy=0;entryX=0.5;entryY=1;entryDx=0;entryDy=0;" parent="WIyWlLk6GJQsqaUBKTNV-1" source="vCmYuKzOBuhRr1PD6FDP-155" target="vCmYuKzOBuhRr1PD6FDP-6" edge="1">
          <mxGeometry width="50" height="50" relative="1" as="geometry">
            <mxPoint x="830" y="520" as="sourcePoint" />
            <mxPoint x="880" y="470" as="targetPoint" />
            <Array as="points" />
          </mxGeometry>
        </mxCell>
        <mxCell id="vCmYuKzOBuhRr1PD6FDP-78" value="&lt;span style=&quot;font-size: 15px;&quot;&gt;MainAcitivites&lt;/span&gt;" style="ellipse;shape=doubleEllipse;whiteSpace=wrap;html=1;" parent="WIyWlLk6GJQsqaUBKTNV-1" vertex="1">
          <mxGeometry x="325" y="105.63" width="130" height="70" as="geometry" />
        </mxCell>
        <mxCell id="vCmYuKzOBuhRr1PD6FDP-84" value="&lt;font style=&quot;font-size: 17px;&quot;&gt;Email&lt;/font&gt;" style="ellipse;whiteSpace=wrap;html=1;" parent="WIyWlLk6GJQsqaUBKTNV-1" vertex="1">
          <mxGeometry x="2000" y="940" width="93" height="40" as="geometry" />
        </mxCell>
        <mxCell id="vCmYuKzOBuhRr1PD6FDP-85" value="&lt;font style=&quot;font-size: 15px;&quot;&gt;RoomNumber&lt;/font&gt;" style="ellipse;whiteSpace=wrap;html=1;" parent="WIyWlLk6GJQsqaUBKTNV-1" vertex="1">
          <mxGeometry x="1973" y="710" width="120" height="55" as="geometry" />
        </mxCell>
        <mxCell id="vCmYuKzOBuhRr1PD6FDP-89" value="&lt;font style=&quot;font-size: 20px;&quot;&gt;Type&lt;/font&gt;" style="ellipse;whiteSpace=wrap;html=1;" parent="WIyWlLk6GJQsqaUBKTNV-1" vertex="1">
          <mxGeometry x="1973" y="646.25" width="102" height="31.25" as="geometry" />
        </mxCell>
        <mxCell id="vCmYuKzOBuhRr1PD6FDP-97" value="" style="endArrow=none;html=1;rounded=0;entryX=1;entryY=0.25;entryDx=0;entryDy=0;exitX=0;exitY=0.5;exitDx=0;exitDy=0;" parent="WIyWlLk6GJQsqaUBKTNV-1" source="vCmYuKzOBuhRr1PD6FDP-89" target="vCmYuKzOBuhRr1PD6FDP-46" edge="1">
          <mxGeometry width="50" height="50" relative="1" as="geometry">
            <mxPoint x="1971" y="695.12" as="sourcePoint" />
            <mxPoint x="1971" y="795.12" as="targetPoint" />
          </mxGeometry>
        </mxCell>
        <mxCell id="vCmYuKzOBuhRr1PD6FDP-98" value="&lt;font style=&quot;font-size: 17px;&quot;&gt;Name&lt;/font&gt;" style="ellipse;whiteSpace=wrap;html=1;" parent="WIyWlLk6GJQsqaUBKTNV-1" vertex="1">
          <mxGeometry x="1978" y="857.62" width="122" height="32.38" as="geometry" />
        </mxCell>
        <mxCell id="vCmYuKzOBuhRr1PD6FDP-99" value="&lt;font style=&quot;font-size: 15px;&quot;&gt;PhoneNumber&lt;/font&gt;" style="ellipse;whiteSpace=wrap;html=1;" parent="WIyWlLk6GJQsqaUBKTNV-1" vertex="1">
          <mxGeometry x="1978" y="780" width="120" height="55" as="geometry" />
        </mxCell>
        <mxCell id="vCmYuKzOBuhRr1PD6FDP-100" value="" style="endArrow=none;html=1;rounded=0;exitX=0.75;exitY=1;exitDx=0;exitDy=0;entryX=0.5;entryY=0;entryDx=0;entryDy=0;" parent="WIyWlLk6GJQsqaUBKTNV-1" source="vCmYuKzOBuhRr1PD6FDP-46" target="vCmYuKzOBuhRr1PD6FDP-84" edge="1">
          <mxGeometry width="50" height="50" relative="1" as="geometry">
            <mxPoint x="1853" y="865.12" as="sourcePoint" />
            <mxPoint x="1903" y="815.12" as="targetPoint" />
          </mxGeometry>
        </mxCell>
        <mxCell id="vCmYuKzOBuhRr1PD6FDP-101" value="" style="endArrow=none;html=1;rounded=0;exitX=1;exitY=1;exitDx=0;exitDy=0;entryX=0;entryY=0.5;entryDx=0;entryDy=0;" parent="WIyWlLk6GJQsqaUBKTNV-1" source="vCmYuKzOBuhRr1PD6FDP-46" target="vCmYuKzOBuhRr1PD6FDP-98" edge="1">
          <mxGeometry width="50" height="50" relative="1" as="geometry">
            <mxPoint x="1876" y="905.12" as="sourcePoint" />
            <mxPoint x="1933" y="995.12" as="targetPoint" />
          </mxGeometry>
        </mxCell>
        <mxCell id="vCmYuKzOBuhRr1PD6FDP-102" value="" style="endArrow=none;html=1;rounded=0;exitX=1;exitY=0.75;exitDx=0;exitDy=0;entryX=0;entryY=0.5;entryDx=0;entryDy=0;" parent="WIyWlLk6GJQsqaUBKTNV-1" source="vCmYuKzOBuhRr1PD6FDP-46" target="vCmYuKzOBuhRr1PD6FDP-99" edge="1">
          <mxGeometry width="50" height="50" relative="1" as="geometry">
            <mxPoint x="1916" y="875.12" as="sourcePoint" />
            <mxPoint x="2006" y="960.12" as="targetPoint" />
          </mxGeometry>
        </mxCell>
        <mxCell id="vCmYuKzOBuhRr1PD6FDP-103" value="" style="endArrow=none;html=1;rounded=0;exitX=1;exitY=0.5;exitDx=0;exitDy=0;entryX=0;entryY=0.5;entryDx=0;entryDy=0;" parent="WIyWlLk6GJQsqaUBKTNV-1" source="vCmYuKzOBuhRr1PD6FDP-46" target="vCmYuKzOBuhRr1PD6FDP-85" edge="1">
          <mxGeometry width="50" height="50" relative="1" as="geometry">
            <mxPoint x="1909.5" y="866.12" as="sourcePoint" />
            <mxPoint x="2012.5" y="895.12" as="targetPoint" />
          </mxGeometry>
        </mxCell>
        <mxCell id="vCmYuKzOBuhRr1PD6FDP-111" value="" style="shape=link;html=1;rounded=0;entryX=0;entryY=0.5;entryDx=0;entryDy=0;exitX=1;exitY=0.5;exitDx=0;exitDy=0;" parent="WIyWlLk6GJQsqaUBKTNV-1" source="vCmYuKzOBuhRr1PD6FDP-6" target="vCmYuKzOBuhRr1PD6FDP-9" edge="1">
          <mxGeometry width="100" relative="1" as="geometry">
            <mxPoint x="1120" y="498" as="sourcePoint" />
            <mxPoint x="1290" y="390" as="targetPoint" />
          </mxGeometry>
        </mxCell>
        <mxCell id="vCmYuKzOBuhRr1PD6FDP-115" value="&lt;span style=&quot;font-size: 15px;&quot;&gt;Advisor&lt;/span&gt;&lt;div&gt;&lt;span style=&quot;font-size: 15px;&quot;&gt;(지도교수)&lt;/span&gt;&lt;/div&gt;" style="ellipse;whiteSpace=wrap;html=1;" parent="WIyWlLk6GJQsqaUBKTNV-1" vertex="1">
          <mxGeometry x="620" y="108.13" width="120" height="55" as="geometry" />
        </mxCell>
        <mxCell id="vCmYuKzOBuhRr1PD6FDP-116" value="" style="endArrow=none;html=1;rounded=0;entryX=0.5;entryY=1;entryDx=0;entryDy=0;exitX=0.5;exitY=0;exitDx=0;exitDy=0;" parent="WIyWlLk6GJQsqaUBKTNV-1" source="vCmYuKzOBuhRr1PD6FDP-6" target="vCmYuKzOBuhRr1PD6FDP-115" edge="1">
          <mxGeometry width="50" height="50" relative="1" as="geometry">
            <mxPoint x="755" y="375" as="sourcePoint" />
            <mxPoint x="640" y="118" as="targetPoint" />
          </mxGeometry>
        </mxCell>
        <mxCell id="vCmYuKzOBuhRr1PD6FDP-117" value="&lt;font style=&quot;font-size: 17px;&quot;&gt;Role&lt;/font&gt;" style="ellipse;whiteSpace=wrap;html=1;" parent="WIyWlLk6GJQsqaUBKTNV-1" vertex="1">
          <mxGeometry x="1815" y="65.63" width="125" height="44.37" as="geometry" />
        </mxCell>
        <mxCell id="vCmYuKzOBuhRr1PD6FDP-127" value="" style="endArrow=none;html=1;rounded=0;exitX=1;exitY=0.5;exitDx=0;exitDy=0;entryX=0;entryY=1;entryDx=0;entryDy=0;" parent="WIyWlLk6GJQsqaUBKTNV-1" target="vCmYuKzOBuhRr1PD6FDP-117" edge="1">
          <mxGeometry width="50" height="50" relative="1" as="geometry">
            <mxPoint x="1790" y="220.6300000000001" as="sourcePoint" />
            <mxPoint x="1898" y="277.5" as="targetPoint" />
          </mxGeometry>
        </mxCell>
        <mxCell id="vCmYuKzOBuhRr1PD6FDP-130" value="&lt;span style=&quot;font-size: 15px;&quot;&gt;Name&lt;/span&gt;" style="ellipse;whiteSpace=wrap;html=1;" parent="WIyWlLk6GJQsqaUBKTNV-1" vertex="1">
          <mxGeometry x="1933" y="139.38" width="120" height="55" as="geometry" />
        </mxCell>
        <mxCell id="vCmYuKzOBuhRr1PD6FDP-132" value="&lt;font style=&quot;font-size: 15px;&quot;&gt;Phone&lt;span style=&quot;color: rgba(0, 0, 0, 0); font-family: monospace; font-size: 0px; text-align: start; text-wrap: nowrap;&quot;&gt;%3CmxGraphModel%3E%3Croot%3E%3CmxCell%20id%3D%220%22%2F%3E%3CmxCell%20id%3D%221%22%20parent%3D%220%22%2F%3E%3CmxCell%20id%3D%222%22%20value%3D%22%26lt%3Bfont%20style%3D%26quot%3Bfont-size%3A%2015px%3B%26quot%3B%26gt%3BRoomNumber%26lt%3B%2Ffont%26gt%3B%22%20style%3D%22ellipse%3BwhiteSpace%3Dwrap%3Bhtml%3D1%3B%22%20vertex%3D%221%22%20parent%3D%221%22%3E%3CmxGeometry%20x%3D%221993%22%20y%3D%22607.5%22%20width%3D%22120%22%20height%3D%2255%22%20as%3D%22geometry%22%2F%3E%3C%2FmxCell%3E%3C%2Froot%3E%3C%2FmxGraphModel%3E&lt;/span&gt;&lt;span style=&quot;color: rgba(0, 0, 0, 0); font-family: monospace; font-size: 0px; text-align: start; text-wrap: nowrap;&quot;&gt;%3CmxGraphModel%3E%3Croot%3E%3CmxCell%20id%3D%220%22%2F%3E%3CmxCell%20id%3D%221%22%20parent%3D%220%22%2F%3E%3CmxCell%20id%3D%222%22%20value%3D%22%26lt%3Bfont%20style%3D%26quot%3Bfont-size%3A%2015px%3B%26quot%3B%26gt%3BRoomNumber%26lt%3B%2Ffont%26gt%3B%22%20style%3D%22ellipse%3BwhiteSpace%3Dwrap%3Bhtml%3D1%3B%22%20vertex%3D%221%22%20parent%3D%221%22%3E%3CmxGeometry%20x%3D%221993%22%20y%3D%22607.5%22%20width%3D%22120%22%20height%3D%2255%22%20as%3D%22geometry%22%2F%3E%3C%2FmxCell%3E%3C%2Froot%3E%3C%2FmxGraphModel%3E&lt;/span&gt;Number&lt;/font&gt;" style="ellipse;whiteSpace=wrap;html=1;" parent="WIyWlLk6GJQsqaUBKTNV-1" vertex="1">
          <mxGeometry x="1809" y="302.5" width="120" height="55" as="geometry" />
        </mxCell>
        <mxCell id="vCmYuKzOBuhRr1PD6FDP-133" value="&lt;span style=&quot;font-size: 15px;&quot;&gt;&lt;u&gt;StudentID&lt;/u&gt;&lt;/span&gt;" style="ellipse;whiteSpace=wrap;html=1;" parent="WIyWlLk6GJQsqaUBKTNV-1" vertex="1">
          <mxGeometry x="1938" y="205" width="120" height="55" as="geometry" />
        </mxCell>
        <mxCell id="vCmYuKzOBuhRr1PD6FDP-135" value="" style="endArrow=none;html=1;rounded=0;exitX=1;exitY=0.5;exitDx=0;exitDy=0;entryX=0;entryY=0.5;entryDx=0;entryDy=0;" parent="WIyWlLk6GJQsqaUBKTNV-1" target="vCmYuKzOBuhRr1PD6FDP-130" edge="1">
          <mxGeometry width="50" height="50" relative="1" as="geometry">
            <mxPoint x="1790" y="220.6300000000001" as="sourcePoint" />
            <mxPoint x="1844" y="168.5" as="targetPoint" />
          </mxGeometry>
        </mxCell>
        <mxCell id="vCmYuKzOBuhRr1PD6FDP-136" value="" style="endArrow=none;html=1;rounded=0;exitX=1;exitY=0.5;exitDx=0;exitDy=0;entryX=-0.022;entryY=0.421;entryDx=0;entryDy=0;entryPerimeter=0;" parent="WIyWlLk6GJQsqaUBKTNV-1" target="vCmYuKzOBuhRr1PD6FDP-133" edge="1">
          <mxGeometry width="50" height="50" relative="1" as="geometry">
            <mxPoint x="1790" y="220.6300000000001" as="sourcePoint" />
            <mxPoint x="1943" y="176.5" as="targetPoint" />
          </mxGeometry>
        </mxCell>
        <mxCell id="vCmYuKzOBuhRr1PD6FDP-137" value="" style="endArrow=none;html=1;rounded=0;exitX=1;exitY=0.5;exitDx=0;exitDy=0;entryX=0.005;entryY=0.39;entryDx=0;entryDy=0;entryPerimeter=0;" parent="WIyWlLk6GJQsqaUBKTNV-1" target="vCmYuKzOBuhRr1PD6FDP-141" edge="1">
          <mxGeometry width="50" height="50" relative="1" as="geometry">
            <mxPoint x="1790" y="220.6300000000001" as="sourcePoint" />
            <mxPoint x="1929.0000000000018" y="300.6300000000001" as="targetPoint" />
          </mxGeometry>
        </mxCell>
        <mxCell id="vCmYuKzOBuhRr1PD6FDP-138" value="" style="endArrow=none;html=1;rounded=0;entryX=0.5;entryY=0;entryDx=0;entryDy=0;exitX=1;exitY=0.5;exitDx=0;exitDy=0;" parent="WIyWlLk6GJQsqaUBKTNV-1" target="vCmYuKzOBuhRr1PD6FDP-132" edge="1">
          <mxGeometry width="50" height="50" relative="1" as="geometry">
            <mxPoint x="1790" y="220.6300000000001" as="sourcePoint" />
            <mxPoint x="1943" y="302.5" as="targetPoint" />
          </mxGeometry>
        </mxCell>
        <mxCell id="vCmYuKzOBuhRr1PD6FDP-139" value="&lt;span style=&quot;font-size: 15px;&quot;&gt;Clubname&lt;/span&gt;" style="ellipse;whiteSpace=wrap;html=1;" parent="WIyWlLk6GJQsqaUBKTNV-1" vertex="1">
          <mxGeometry x="515" y="53.13" width="120" height="55" as="geometry" />
        </mxCell>
        <mxCell id="vCmYuKzOBuhRr1PD6FDP-140" value="" style="endArrow=none;html=1;rounded=0;entryX=0.5;entryY=1;entryDx=0;entryDy=0;exitX=0.5;exitY=0;exitDx=0;exitDy=0;" parent="WIyWlLk6GJQsqaUBKTNV-1" source="vCmYuKzOBuhRr1PD6FDP-6" target="vCmYuKzOBuhRr1PD6FDP-139" edge="1">
          <mxGeometry width="50" height="50" relative="1" as="geometry">
            <mxPoint x="755" y="375" as="sourcePoint" />
            <mxPoint x="690" y="173" as="targetPoint" />
          </mxGeometry>
        </mxCell>
        <mxCell id="vCmYuKzOBuhRr1PD6FDP-141" value="&lt;font style=&quot;font-size: 23px;&quot;&gt;Major&lt;/font&gt;" style="ellipse;shape=doubleEllipse;whiteSpace=wrap;html=1;" parent="WIyWlLk6GJQsqaUBKTNV-1" vertex="1">
          <mxGeometry x="1973" y="291.56" width="120" height="53.44" as="geometry" />
        </mxCell>
        <mxCell id="vCmYuKzOBuhRr1PD6FDP-152" value="N" style="text;html=1;align=center;verticalAlign=middle;resizable=0;points=[];autosize=1;strokeColor=none;fillColor=none;" parent="WIyWlLk6GJQsqaUBKTNV-1" vertex="1">
          <mxGeometry x="740" y="550" width="30" height="30" as="geometry" />
        </mxCell>
        <mxCell id="vCmYuKzOBuhRr1PD6FDP-154" value="1" style="text;html=1;align=center;verticalAlign=middle;resizable=0;points=[];autosize=1;strokeColor=none;fillColor=none;" parent="WIyWlLk6GJQsqaUBKTNV-1" vertex="1">
          <mxGeometry x="740" y="423" width="30" height="30" as="geometry" />
        </mxCell>
        <mxCell id="vCmYuKzOBuhRr1PD6FDP-157" value="&lt;font style=&quot;font-size: 16px;&quot;&gt;COMPOSE_OF&lt;/font&gt;" style="rhombus;whiteSpace=wrap;html=1;" parent="WIyWlLk6GJQsqaUBKTNV-1" vertex="1">
          <mxGeometry x="880" y="180" width="150" height="79.44" as="geometry" />
        </mxCell>
        <mxCell id="vCmYuKzOBuhRr1PD6FDP-161" value="" style="shape=link;html=1;rounded=0;exitX=1;exitY=0;exitDx=0;exitDy=0;entryX=0;entryY=1;entryDx=0;entryDy=0;" parent="WIyWlLk6GJQsqaUBKTNV-1" source="vCmYuKzOBuhRr1PD6FDP-6" target="vCmYuKzOBuhRr1PD6FDP-157" edge="1">
          <mxGeometry width="100" relative="1" as="geometry">
            <mxPoint x="960" y="340" as="sourcePoint" />
            <mxPoint x="912.5" y="244.57999999999947" as="targetPoint" />
          </mxGeometry>
        </mxCell>
        <mxCell id="vCmYuKzOBuhRr1PD6FDP-162" value="" style="shape=link;html=1;rounded=0;exitX=1;exitY=0.5;exitDx=0;exitDy=0;entryX=0;entryY=0.5;entryDx=0;entryDy=0;" parent="WIyWlLk6GJQsqaUBKTNV-1" source="vCmYuKzOBuhRr1PD6FDP-157" target="vCmYuKzOBuhRr1PD6FDP-170" edge="1">
          <mxGeometry width="100" relative="1" as="geometry">
            <mxPoint x="997.5" y="194.85999999999967" as="sourcePoint" />
            <mxPoint x="1102" y="123.13000000000011" as="targetPoint" />
          </mxGeometry>
        </mxCell>
        <mxCell id="vCmYuKzOBuhRr1PD6FDP-163" value="1" style="text;html=1;align=center;verticalAlign=middle;resizable=0;points=[];autosize=1;strokeColor=none;fillColor=none;" parent="WIyWlLk6GJQsqaUBKTNV-1" vertex="1">
          <mxGeometry x="870" y="233.13" width="30" height="30" as="geometry" />
        </mxCell>
        <mxCell id="vCmYuKzOBuhRr1PD6FDP-164" value="N" style="text;html=1;align=center;verticalAlign=middle;resizable=0;points=[];autosize=1;strokeColor=none;fillColor=none;" parent="WIyWlLk6GJQsqaUBKTNV-1" vertex="1">
          <mxGeometry x="985" y="158.13" width="30" height="30" as="geometry" />
        </mxCell>
        <mxCell id="vCmYuKzOBuhRr1PD6FDP-170" value="&lt;span style=&quot;font-size: 20px;&quot;&gt;Member&lt;/span&gt;" style="rounded=0;whiteSpace=wrap;html=1;" parent="WIyWlLk6GJQsqaUBKTNV-1" vertex="1">
          <mxGeometry x="1670" y="187.5" width="120" height="60" as="geometry" />
        </mxCell>
        <mxCell id="vCmYuKzOBuhRr1PD6FDP-174" value="&lt;span style=&quot;font-size: 18px;&quot;&gt;Rentaled Room&lt;/span&gt;" style="rounded=0;whiteSpace=wrap;html=1;" parent="WIyWlLk6GJQsqaUBKTNV-1" vertex="1">
          <mxGeometry x="1130" y="347.5" width="170" height="50" as="geometry" />
        </mxCell>
        <mxCell id="vCmYuKzOBuhRr1PD6FDP-175" value="" style="endArrow=none;html=1;rounded=0;entryX=0;entryY=0.5;entryDx=0;entryDy=0;exitX=0.5;exitY=0;exitDx=0;exitDy=0;" parent="WIyWlLk6GJQsqaUBKTNV-1" source="vCmYuKzOBuhRr1PD6FDP-9" target="vCmYuKzOBuhRr1PD6FDP-174" edge="1">
          <mxGeometry width="50" height="50" relative="1" as="geometry">
            <mxPoint x="1008" y="476" as="sourcePoint" />
            <mxPoint x="990" y="413" as="targetPoint" />
            <Array as="points">
              <mxPoint x="1080" y="410" />
            </Array>
          </mxGeometry>
        </mxCell>
        <mxCell id="vCmYuKzOBuhRr1PD6FDP-176" value="&lt;div style=&quot;&quot;&gt;&lt;font face=&quot;noto, notojp, notokr, Helvetica, Microsoft YaHei, Apple SD Gothic Neo, Malgun Gothic, 맑은 고딕, Dotum, 돋움, sans-serif&quot;&gt;&lt;span style=&quot;font-size: 14px;&quot;&gt;Person in charge&lt;/span&gt;&lt;/font&gt;&lt;/div&gt;" style="ellipse;whiteSpace=wrap;html=1;align=center;fillColor=default;labelBackgroundColor=none;fontColor=default;" parent="WIyWlLk6GJQsqaUBKTNV-1" vertex="1">
          <mxGeometry x="1430" y="347.5" width="101" height="48.12" as="geometry" />
        </mxCell>
        <mxCell id="vCmYuKzOBuhRr1PD6FDP-177" value="&lt;u&gt;AdminStaffID&lt;/u&gt;&lt;div&gt;(행정직원)&lt;/div&gt;" style="ellipse;whiteSpace=wrap;html=1;" parent="WIyWlLk6GJQsqaUBKTNV-1" vertex="1">
          <mxGeometry x="1350" y="305" width="90" height="45" as="geometry" />
        </mxCell>
        <mxCell id="vCmYuKzOBuhRr1PD6FDP-178" value="" style="endArrow=none;html=1;rounded=0;entryX=1;entryY=0.5;entryDx=0;entryDy=0;exitX=0;exitY=0.5;exitDx=0;exitDy=0;" parent="WIyWlLk6GJQsqaUBKTNV-1" source="vCmYuKzOBuhRr1PD6FDP-176" target="vCmYuKzOBuhRr1PD6FDP-174" edge="1">
          <mxGeometry width="50" height="50" relative="1" as="geometry">
            <mxPoint x="1539" y="663.25" as="sourcePoint" />
            <mxPoint x="1319" y="374.75" as="targetPoint" />
          </mxGeometry>
        </mxCell>
        <mxCell id="vCmYuKzOBuhRr1PD6FDP-179" value="" style="endArrow=none;html=1;rounded=0;entryX=1;entryY=0;entryDx=0;entryDy=0;exitX=0;exitY=0.5;exitDx=0;exitDy=0;" parent="WIyWlLk6GJQsqaUBKTNV-1" source="vCmYuKzOBuhRr1PD6FDP-177" edge="1">
          <mxGeometry width="50" height="50" relative="1" as="geometry">
            <mxPoint x="1529" y="348.25" as="sourcePoint" />
            <mxPoint x="1300" y="349.75" as="targetPoint" />
            <Array as="points" />
          </mxGeometry>
        </mxCell>
        <mxCell id="vCmYuKzOBuhRr1PD6FDP-180" value="" style="endArrow=none;html=1;rounded=0;entryX=1;entryY=0.75;entryDx=0;entryDy=0;exitX=0;exitY=0.5;exitDx=0;exitDy=0;" parent="WIyWlLk6GJQsqaUBKTNV-1" source="vCmYuKzOBuhRr1PD6FDP-181" target="vCmYuKzOBuhRr1PD6FDP-174" edge="1">
          <mxGeometry width="50" height="50" relative="1" as="geometry">
            <mxPoint x="1545" y="336.13" as="sourcePoint" />
            <mxPoint x="1300" y="398.75" as="targetPoint" />
          </mxGeometry>
        </mxCell>
        <mxCell id="vCmYuKzOBuhRr1PD6FDP-181" value="&lt;span style=&quot;font-family: noto, notojp, notokr, Helvetica, &amp;quot;Microsoft YaHei&amp;quot;, &amp;quot;Apple SD Gothic Neo&amp;quot;, &amp;quot;Malgun Gothic&amp;quot;, &amp;quot;맑은 고딕&amp;quot;, Dotum, 돋움, sans-serif; text-align: left;&quot;&gt;&lt;font style=&quot;font-size: 14px;&quot;&gt;Date&lt;/font&gt;&lt;/span&gt;" style="ellipse;whiteSpace=wrap;html=1;labelBackgroundColor=none;fontColor=default;" parent="WIyWlLk6GJQsqaUBKTNV-1" vertex="1">
          <mxGeometry x="1350" y="397.5" width="90" height="45" as="geometry" />
        </mxCell>
        <mxCell id="vCmYuKzOBuhRr1PD6FDP-184" value="" style="endArrow=none;dashed=1;html=1;dashPattern=1 3;strokeWidth=2;rounded=0;entryX=0.5;entryY=1;entryDx=0;entryDy=0;exitX=0.5;exitY=0;exitDx=0;exitDy=0;" parent="WIyWlLk6GJQsqaUBKTNV-1" source="vCmYuKzOBuhRr1PD6FDP-185" target="vCmYuKzOBuhRr1PD6FDP-174" edge="1">
          <mxGeometry width="50" height="50" relative="1" as="geometry">
            <mxPoint x="1230" y="470" as="sourcePoint" />
            <mxPoint x="1360" y="440" as="targetPoint" />
          </mxGeometry>
        </mxCell>
        <mxCell id="vCmYuKzOBuhRr1PD6FDP-185" value="Number_of&lt;div&gt;Empty Room&lt;/div&gt;" style="ellipse;whiteSpace=wrap;html=1;" parent="WIyWlLk6GJQsqaUBKTNV-1" vertex="1">
          <mxGeometry x="1163.5" y="445" width="103" height="60" as="geometry" />
        </mxCell>
        <mxCell id="vCmYuKzOBuhRr1PD6FDP-186" value="N" style="text;html=1;align=center;verticalAlign=middle;resizable=0;points=[];autosize=1;strokeColor=none;fillColor=none;" parent="WIyWlLk6GJQsqaUBKTNV-1" vertex="1">
          <mxGeometry x="1020" y="415" width="30" height="30" as="geometry" />
        </mxCell>
        <mxCell id="vCmYuKzOBuhRr1PD6FDP-188" value="&lt;span style=&quot;font-size: 18px;&quot;&gt;make a suggestion&lt;/span&gt;&lt;div&gt;&lt;span style=&quot;font-size: 18px;&quot;&gt;(건의사항 요구)&lt;/span&gt;&lt;/div&gt;" style="rhombus;whiteSpace=wrap;html=1;" parent="WIyWlLk6GJQsqaUBKTNV-1" vertex="1">
          <mxGeometry x="1630" y="472.5" width="240" height="117.5" as="geometry" />
        </mxCell>
        <mxCell id="vCmYuKzOBuhRr1PD6FDP-189" value="" style="endArrow=none;html=1;rounded=0;entryX=0.5;entryY=1;entryDx=0;entryDy=0;exitX=0.5;exitY=0;exitDx=0;exitDy=0;" parent="WIyWlLk6GJQsqaUBKTNV-1" source="vCmYuKzOBuhRr1PD6FDP-188" target="vCmYuKzOBuhRr1PD6FDP-170" edge="1">
          <mxGeometry width="50" height="50" relative="1" as="geometry">
            <mxPoint x="1710" y="570" as="sourcePoint" />
            <mxPoint x="1760" y="520" as="targetPoint" />
            <Array as="points" />
          </mxGeometry>
        </mxCell>
        <mxCell id="vCmYuKzOBuhRr1PD6FDP-190" value="" style="endArrow=none;html=1;rounded=0;entryX=0.5;entryY=1;entryDx=0;entryDy=0;exitX=0.5;exitY=0;exitDx=0;exitDy=0;" parent="WIyWlLk6GJQsqaUBKTNV-1" source="vCmYuKzOBuhRr1PD6FDP-46" target="vCmYuKzOBuhRr1PD6FDP-188" edge="1">
          <mxGeometry width="50" height="50" relative="1" as="geometry">
            <mxPoint x="1840" y="820.12" as="sourcePoint" />
            <mxPoint x="1800" y="590.12" as="targetPoint" />
            <Array as="points" />
          </mxGeometry>
        </mxCell>
        <mxCell id="vCmYuKzOBuhRr1PD6FDP-194" value="M" style="text;html=1;align=center;verticalAlign=middle;resizable=0;points=[];autosize=1;strokeColor=none;fillColor=none;" parent="WIyWlLk6GJQsqaUBKTNV-1" vertex="1">
          <mxGeometry x="1745" y="445" width="30" height="30" as="geometry" />
        </mxCell>
        <mxCell id="vCmYuKzOBuhRr1PD6FDP-195" value="N" style="text;html=1;align=center;verticalAlign=middle;resizable=0;points=[];autosize=1;strokeColor=none;fillColor=none;" parent="WIyWlLk6GJQsqaUBKTNV-1" vertex="1">
          <mxGeometry x="1755" y="585" width="30" height="30" as="geometry" />
        </mxCell>
        <mxCell id="vCmYuKzOBuhRr1PD6FDP-196" value="&lt;span style=&quot;font-size: 15px;&quot;&gt;Content&lt;/span&gt;&lt;div&gt;&lt;span style=&quot;font-size: 15px;&quot;&gt;(내용)&lt;/span&gt;&lt;/div&gt;" style="ellipse;whiteSpace=wrap;html=1;" parent="WIyWlLk6GJQsqaUBKTNV-1" vertex="1">
          <mxGeometry x="1973" y="450" width="120" height="55" as="geometry" />
        </mxCell>
        <mxCell id="vCmYuKzOBuhRr1PD6FDP-198" value="" style="endArrow=none;html=1;rounded=0;exitX=1;exitY=0;exitDx=0;exitDy=0;entryX=0;entryY=0.5;entryDx=0;entryDy=0;" parent="WIyWlLk6GJQsqaUBKTNV-1" source="vCmYuKzOBuhRr1PD6FDP-188" target="vCmYuKzOBuhRr1PD6FDP-196" edge="1">
          <mxGeometry width="50" height="50" relative="1" as="geometry">
            <mxPoint x="1770" y="510" as="sourcePoint" />
            <mxPoint x="1820" y="460" as="targetPoint" />
          </mxGeometry>
        </mxCell>
        <mxCell id="d4KhPjms4J9oD2DfzJ6Q-2" value="&lt;font style=&quot;font-size: 18px;&quot;&gt;Project&lt;/font&gt;" style="whiteSpace=wrap;html=1;align=center;" parent="WIyWlLk6GJQsqaUBKTNV-1" vertex="1">
          <mxGeometry x="675" y="606.25" width="140" height="52.5" as="geometry" />
        </mxCell>
        <mxCell id="FsqOEDa707_bFEUWgg3E-0" value="&lt;span style=&quot;font-size: 15px;&quot;&gt;&lt;u&gt;ClubID&lt;/u&gt;&lt;/span&gt;" style="ellipse;whiteSpace=wrap;html=1;" parent="WIyWlLk6GJQsqaUBKTNV-1" vertex="1">
          <mxGeometry x="414" y="345" width="120" height="55" as="geometry" />
        </mxCell>
        <mxCell id="FsqOEDa707_bFEUWgg3E-1" value="" style="endArrow=none;html=1;rounded=0;entryX=1;entryY=0.5;entryDx=0;entryDy=0;exitX=0;exitY=0.5;exitDx=0;exitDy=0;" parent="WIyWlLk6GJQsqaUBKTNV-1" source="vCmYuKzOBuhRr1PD6FDP-6" target="FsqOEDa707_bFEUWgg3E-0" edge="1">
          <mxGeometry width="50" height="50" relative="1" as="geometry">
            <mxPoint x="755" y="360" as="sourcePoint" />
            <mxPoint x="790" y="118" as="targetPoint" />
          </mxGeometry>
        </mxCell>
        <mxCell id="9hyCEh7rMGSEmo8F7DcR-2" value="&lt;u&gt;SuggestionID&lt;/u&gt;" style="ellipse;whiteSpace=wrap;html=1;" parent="WIyWlLk6GJQsqaUBKTNV-1" vertex="1">
          <mxGeometry x="1980" y="510" width="120" height="55" as="geometry" />
        </mxCell>
        <mxCell id="9hyCEh7rMGSEmo8F7DcR-3" value="" style="endArrow=none;html=1;rounded=0;exitX=1;exitY=1;exitDx=0;exitDy=0;entryX=0;entryY=0.5;entryDx=0;entryDy=0;" parent="WIyWlLk6GJQsqaUBKTNV-1" source="vCmYuKzOBuhRr1PD6FDP-188" target="9hyCEh7rMGSEmo8F7DcR-2" edge="1">
          <mxGeometry width="50" height="50" relative="1" as="geometry">
            <mxPoint x="1820" y="512" as="sourcePoint" />
            <mxPoint x="1905" y="483" as="targetPoint" />
          </mxGeometry>
        </mxCell>
        <mxCell id="9hyCEh7rMGSEmo8F7DcR-6" value="" style="endArrow=none;html=1;rounded=0;exitX=0.5;exitY=0;exitDx=0;exitDy=0;entryX=0.5;entryY=1;entryDx=0;entryDy=0;" parent="WIyWlLk6GJQsqaUBKTNV-1" source="d4KhPjms4J9oD2DfzJ6Q-2" target="vCmYuKzOBuhRr1PD6FDP-155" edge="1">
          <mxGeometry width="50" height="50" relative="1" as="geometry">
            <mxPoint x="740" y="620" as="sourcePoint" />
            <mxPoint x="740" y="570" as="targetPoint" />
            <Array as="points" />
          </mxGeometry>
        </mxCell>
        <mxCell id="9hyCEh7rMGSEmo8F7DcR-8" value="&lt;font style=&quot;font-size: 17px;&quot;&gt;&lt;u&gt;EMPID&lt;/u&gt;&lt;/font&gt;" style="ellipse;whiteSpace=wrap;html=1;" parent="WIyWlLk6GJQsqaUBKTNV-1" vertex="1">
          <mxGeometry x="1861.5" y="990" width="98.5" height="45" as="geometry" />
        </mxCell>
        <mxCell id="9hyCEh7rMGSEmo8F7DcR-9" value="" style="endArrow=none;html=1;rounded=0;exitX=0.45;exitY=0.955;exitDx=0;exitDy=0;entryX=0.5;entryY=0;entryDx=0;entryDy=0;exitPerimeter=0;" parent="WIyWlLk6GJQsqaUBKTNV-1" source="vCmYuKzOBuhRr1PD6FDP-46" target="9hyCEh7rMGSEmo8F7DcR-8" edge="1">
          <mxGeometry width="50" height="50" relative="1" as="geometry">
            <mxPoint x="1714.5" y="960" as="sourcePoint" />
            <mxPoint x="1751.5" y="880.12" as="targetPoint" />
          </mxGeometry>
        </mxCell>
        <mxCell id="9hyCEh7rMGSEmo8F7DcR-10" value="&lt;span style=&quot;font-size: 15px;&quot;&gt;Clubname&lt;/span&gt;" style="ellipse;whiteSpace=wrap;html=1;" parent="WIyWlLk6GJQsqaUBKTNV-1" vertex="1">
          <mxGeometry x="685" y="725" width="120" height="55" as="geometry" />
        </mxCell>
        <mxCell id="9hyCEh7rMGSEmo8F7DcR-11" value="" style="endArrow=none;html=1;rounded=0;entryX=0.5;entryY=0;entryDx=0;entryDy=0;exitX=0.5;exitY=1;exitDx=0;exitDy=0;" parent="WIyWlLk6GJQsqaUBKTNV-1" source="d4KhPjms4J9oD2DfzJ6Q-2" target="9hyCEh7rMGSEmo8F7DcR-10" edge="1">
          <mxGeometry width="50" height="50" relative="1" as="geometry">
            <mxPoint x="740" y="772" as="sourcePoint" />
            <mxPoint x="570" y="530" as="targetPoint" />
          </mxGeometry>
        </mxCell>
        <mxCell id="9hyCEh7rMGSEmo8F7DcR-12" value="&lt;span style=&quot;font-size: 15px;&quot;&gt;&lt;u&gt;Advisor&lt;/u&gt;&lt;/span&gt;" style="ellipse;whiteSpace=wrap;html=1;" parent="WIyWlLk6GJQsqaUBKTNV-1" vertex="1">
          <mxGeometry x="815" y="713.75" width="120" height="55" as="geometry" />
        </mxCell>
        <mxCell id="9hyCEh7rMGSEmo8F7DcR-13" value="" style="endArrow=none;html=1;rounded=0;entryX=0;entryY=0;entryDx=0;entryDy=0;exitX=0.75;exitY=1;exitDx=0;exitDy=0;" parent="WIyWlLk6GJQsqaUBKTNV-1" source="d4KhPjms4J9oD2DfzJ6Q-2" target="9hyCEh7rMGSEmo8F7DcR-12" edge="1">
          <mxGeometry width="50" height="50" relative="1" as="geometry">
            <mxPoint x="810" y="665.25" as="sourcePoint" />
            <mxPoint x="720" y="731.25" as="targetPoint" />
          </mxGeometry>
        </mxCell>
        <mxCell id="9hyCEh7rMGSEmo8F7DcR-20" value="&lt;span style=&quot;font-size: 15px;&quot;&gt;ClubID&lt;/span&gt;" style="ellipse;whiteSpace=wrap;html=1;" parent="WIyWlLk6GJQsqaUBKTNV-1" vertex="1">
          <mxGeometry x="555" y="724.75" width="120" height="55" as="geometry" />
        </mxCell>
        <mxCell id="9hyCEh7rMGSEmo8F7DcR-21" value="" style="endArrow=none;html=1;rounded=0;entryX=0.5;entryY=0;entryDx=0;entryDy=0;exitX=0.193;exitY=0.995;exitDx=0;exitDy=0;exitPerimeter=0;" parent="WIyWlLk6GJQsqaUBKTNV-1" source="d4KhPjms4J9oD2DfzJ6Q-2" target="9hyCEh7rMGSEmo8F7DcR-20" edge="1">
          <mxGeometry width="50" height="50" relative="1" as="geometry">
            <mxPoint x="615" y="658.75" as="sourcePoint" />
            <mxPoint x="440" y="529.75" as="targetPoint" />
          </mxGeometry>
        </mxCell>
      </root>
    </mxGraphModel>
  </diagram>
  <diagram id="0QTB9-K3Yqa5ynkcqbcC" name="DB schema">
    <mxGraphModel dx="1793" dy="1045" grid="1" gridSize="10" guides="1" tooltips="1" connect="1" arrows="1" fold="1" page="1" pageScale="1" pageWidth="1169" pageHeight="827" math="0" shadow="0">
      <root>
        <mxCell id="0" />
        <mxCell id="1" parent="0" />
        <mxCell id="zfn-MgXJD_NOxzqHw20s-2" value="&lt;u&gt;ClubID&lt;/u&gt;" style="rounded=0;whiteSpace=wrap;html=1;" parent="1" vertex="1">
          <mxGeometry x="160" y="200" width="120" height="60" as="geometry" />
        </mxCell>
        <mxCell id="zfn-MgXJD_NOxzqHw20s-3" value="ClubName" style="rounded=0;whiteSpace=wrap;html=1;" parent="1" vertex="1">
          <mxGeometry x="280" y="200" width="120" height="60" as="geometry" />
        </mxCell>
        <mxCell id="zfn-MgXJD_NOxzqHw20s-9" value="Type" style="rounded=0;whiteSpace=wrap;html=1;" parent="1" vertex="1">
          <mxGeometry x="400" y="200" width="120" height="60" as="geometry" />
        </mxCell>
        <mxCell id="zfn-MgXJD_NOxzqHw20s-10" value="MainActivities" style="rounded=0;whiteSpace=wrap;html=1;" parent="1" vertex="1">
          <mxGeometry x="520" y="200" width="120" height="60" as="geometry" />
        </mxCell>
        <mxCell id="zfn-MgXJD_NOxzqHw20s-11" value="FieldofResearch" style="rounded=0;whiteSpace=wrap;html=1;" parent="1" vertex="1">
          <mxGeometry x="760" y="200" width="120" height="60" as="geometry" />
        </mxCell>
        <mxCell id="zfn-MgXJD_NOxzqHw20s-12" value="FieldofActivity" style="rounded=0;whiteSpace=wrap;html=1;" parent="1" vertex="1">
          <mxGeometry x="640" y="200" width="120" height="60" as="geometry" />
        </mxCell>
        <mxCell id="zfn-MgXJD_NOxzqHw20s-13" value="Advisor" style="rounded=0;whiteSpace=wrap;html=1;" parent="1" vertex="1">
          <mxGeometry x="880" y="200" width="120" height="60" as="geometry" />
        </mxCell>
        <mxCell id="zfn-MgXJD_NOxzqHw20s-14" value="RoomNumber" style="rounded=0;whiteSpace=wrap;html=1;" parent="1" vertex="1">
          <mxGeometry x="1000" y="200" width="120" height="60" as="geometry" />
        </mxCell>
        <mxCell id="zfn-MgXJD_NOxzqHw20s-15" value="&lt;font style=&quot;font-size: 16px;&quot;&gt;&lt;b&gt;Club&lt;/b&gt;&lt;/font&gt;" style="text;html=1;align=center;verticalAlign=middle;whiteSpace=wrap;rounded=0;" parent="1" vertex="1">
          <mxGeometry x="140" y="160" width="60" height="30" as="geometry" />
        </mxCell>
        <mxCell id="zfn-MgXJD_NOxzqHw20s-16" value="&lt;u&gt;MemberId&lt;/u&gt;" style="rounded=0;whiteSpace=wrap;html=1;" parent="1" vertex="1">
          <mxGeometry x="160" y="400" width="120" height="60" as="geometry" />
        </mxCell>
        <mxCell id="zfn-MgXJD_NOxzqHw20s-17" value="Name" style="rounded=0;whiteSpace=wrap;html=1;" parent="1" vertex="1">
          <mxGeometry x="280" y="400" width="120" height="60" as="geometry" />
        </mxCell>
        <mxCell id="zfn-MgXJD_NOxzqHw20s-18" value="StudentID" style="rounded=0;whiteSpace=wrap;html=1;" parent="1" vertex="1">
          <mxGeometry x="400" y="400" width="120" height="60" as="geometry" />
        </mxCell>
        <mxCell id="zfn-MgXJD_NOxzqHw20s-19" value="PhoneNumber" style="rounded=0;whiteSpace=wrap;html=1;" parent="1" vertex="1">
          <mxGeometry x="520" y="400" width="120" height="60" as="geometry" />
        </mxCell>
        <mxCell id="zfn-MgXJD_NOxzqHw20s-20" value="Type" style="rounded=0;whiteSpace=wrap;html=1;" parent="1" vertex="1">
          <mxGeometry x="760" y="400" width="120" height="60" as="geometry" />
        </mxCell>
        <mxCell id="zfn-MgXJD_NOxzqHw20s-21" value="Major" style="rounded=0;whiteSpace=wrap;html=1;" parent="1" vertex="1">
          <mxGeometry x="640" y="400" width="120" height="60" as="geometry" />
        </mxCell>
        <mxCell id="zfn-MgXJD_NOxzqHw20s-24" value="&lt;font style=&quot;font-size: 16px;&quot;&gt;&lt;b&gt;Member&lt;/b&gt;&lt;/font&gt;" style="text;html=1;align=center;verticalAlign=middle;whiteSpace=wrap;rounded=0;" parent="1" vertex="1">
          <mxGeometry x="140" y="360" width="90" height="30" as="geometry" />
        </mxCell>
        <mxCell id="zfn-MgXJD_NOxzqHw20s-25" value="&lt;u&gt;EmployeeID&lt;/u&gt;" style="rounded=0;whiteSpace=wrap;html=1;" parent="1" vertex="1">
          <mxGeometry x="160" y="610" width="120" height="60" as="geometry" />
        </mxCell>
        <mxCell id="zfn-MgXJD_NOxzqHw20s-26" value="Name" style="rounded=0;whiteSpace=wrap;html=1;" parent="1" vertex="1">
          <mxGeometry x="280" y="610" width="120" height="60" as="geometry" />
        </mxCell>
        <mxCell id="zfn-MgXJD_NOxzqHw20s-27" value="PhoneNumber" style="rounded=0;whiteSpace=wrap;html=1;" parent="1" vertex="1">
          <mxGeometry x="400" y="610" width="120" height="60" as="geometry" />
        </mxCell>
        <mxCell id="zfn-MgXJD_NOxzqHw20s-28" value="Email" style="rounded=0;whiteSpace=wrap;html=1;" parent="1" vertex="1">
          <mxGeometry x="520" y="610" width="120" height="60" as="geometry" />
        </mxCell>
        <mxCell id="zfn-MgXJD_NOxzqHw20s-29" value="RoomNumber" style="rounded=0;whiteSpace=wrap;html=1;" parent="1" vertex="1">
          <mxGeometry x="760" y="610" width="120" height="60" as="geometry" />
        </mxCell>
        <mxCell id="zfn-MgXJD_NOxzqHw20s-30" value="Type" style="rounded=0;whiteSpace=wrap;html=1;" parent="1" vertex="1">
          <mxGeometry x="640" y="610" width="120" height="60" as="geometry" />
        </mxCell>
        <mxCell id="zfn-MgXJD_NOxzqHw20s-33" value="&lt;font style=&quot;font-size: 16px;&quot;&gt;&lt;b&gt;Employee&lt;/b&gt;&lt;/font&gt;" style="text;html=1;align=center;verticalAlign=middle;whiteSpace=wrap;rounded=0;" parent="1" vertex="1">
          <mxGeometry x="140" y="570" width="100" height="30" as="geometry" />
        </mxCell>
        <mxCell id="zfn-MgXJD_NOxzqHw20s-34" value="&lt;u&gt;RoomID&lt;/u&gt;" style="rounded=0;whiteSpace=wrap;html=1;" parent="1" vertex="1">
          <mxGeometry x="160" y="830" width="120" height="60" as="geometry" />
        </mxCell>
        <mxCell id="zfn-MgXJD_NOxzqHw20s-35" value="Date" style="rounded=0;whiteSpace=wrap;html=1;" parent="1" vertex="1">
          <mxGeometry x="280" y="830" width="120" height="60" as="geometry" />
        </mxCell>
        <mxCell id="zfn-MgXJD_NOxzqHw20s-36" value="Personin&lt;div&gt;charge&lt;/div&gt;" style="rounded=0;whiteSpace=wrap;html=1;" parent="1" vertex="1">
          <mxGeometry x="400" y="830" width="120" height="60" as="geometry" />
        </mxCell>
        <mxCell id="zfn-MgXJD_NOxzqHw20s-37" value="&lt;font color=&quot;#3333ff&quot;&gt;AdminStaffID&lt;/font&gt;" style="rounded=0;whiteSpace=wrap;html=1;" parent="1" vertex="1">
          <mxGeometry x="520" y="830" width="120" height="60" as="geometry" />
        </mxCell>
        <mxCell id="zfn-MgXJD_NOxzqHw20s-39" value="NumberOf&lt;br&gt;EmptyRooms" style="rounded=0;whiteSpace=wrap;html=1;" parent="1" vertex="1">
          <mxGeometry x="640" y="830" width="120" height="60" as="geometry" />
        </mxCell>
        <mxCell id="zfn-MgXJD_NOxzqHw20s-42" value="&lt;font style=&quot;font-size: 16px;&quot;&gt;&lt;b&gt;Rented Room&lt;/b&gt;&lt;/font&gt;" style="text;html=1;align=center;verticalAlign=middle;whiteSpace=wrap;rounded=0;" parent="1" vertex="1">
          <mxGeometry x="130" y="790" width="150" height="30" as="geometry" />
        </mxCell>
        <mxCell id="zfn-MgXJD_NOxzqHw20s-43" value="&lt;u&gt;ClubId&lt;/u&gt;" style="rounded=0;whiteSpace=wrap;html=1;" parent="1" vertex="1">
          <mxGeometry x="160" y="1030" width="120" height="60" as="geometry" />
        </mxCell>
        <mxCell id="zfn-MgXJD_NOxzqHw20s-44" value="&lt;u&gt;ProjectID&lt;/u&gt;" style="rounded=0;whiteSpace=wrap;html=1;" parent="1" vertex="1">
          <mxGeometry x="280" y="1030" width="120" height="60" as="geometry" />
        </mxCell>
        <mxCell id="zfn-MgXJD_NOxzqHw20s-45" value="ProjectName" style="rounded=0;whiteSpace=wrap;html=1;" parent="1" vertex="1">
          <mxGeometry x="400" y="1030" width="120" height="60" as="geometry" />
        </mxCell>
        <mxCell id="zfn-MgXJD_NOxzqHw20s-46" value="Goal" style="rounded=0;whiteSpace=wrap;html=1;" parent="1" vertex="1">
          <mxGeometry x="520" y="1030" width="120" height="60" as="geometry" />
        </mxCell>
        <mxCell id="zfn-MgXJD_NOxzqHw20s-51" value="&lt;font style=&quot;font-size: 16px;&quot;&gt;&lt;b&gt;Proceed&lt;/b&gt;&lt;/font&gt;" style="text;html=1;align=center;verticalAlign=middle;whiteSpace=wrap;rounded=0;" parent="1" vertex="1">
          <mxGeometry x="140" y="990" width="90" height="30" as="geometry" />
        </mxCell>
        <mxCell id="zfn-MgXJD_NOxzqHw20s-52" value="&lt;u&gt;SuggestionID&lt;/u&gt;" style="rounded=0;whiteSpace=wrap;html=1;" parent="1" vertex="1">
          <mxGeometry x="160" y="1250" width="120" height="60" as="geometry" />
        </mxCell>
        <mxCell id="zfn-MgXJD_NOxzqHw20s-53" value="Content" style="rounded=0;whiteSpace=wrap;html=1;" parent="1" vertex="1">
          <mxGeometry x="520" y="1250" width="120" height="60" as="geometry" />
        </mxCell>
        <mxCell id="zfn-MgXJD_NOxzqHw20s-54" value="&lt;font color=&quot;#3333ff&quot;&gt;EmployeeID&lt;/font&gt;" style="rounded=0;whiteSpace=wrap;html=1;" parent="1" vertex="1">
          <mxGeometry x="280" y="1250" width="120" height="60" as="geometry" />
        </mxCell>
        <mxCell id="zfn-MgXJD_NOxzqHw20s-55" value="&lt;font color=&quot;#3333ff&quot;&gt;MemberID&lt;/font&gt;" style="rounded=0;whiteSpace=wrap;html=1;" parent="1" vertex="1">
          <mxGeometry x="400" y="1250" width="120" height="60" as="geometry" />
        </mxCell>
        <mxCell id="zfn-MgXJD_NOxzqHw20s-60" value="&lt;font style=&quot;font-size: 16px;&quot;&gt;&lt;b&gt;Make_A_Suggestion&lt;/b&gt;&lt;/font&gt;" style="text;html=1;align=center;verticalAlign=middle;whiteSpace=wrap;rounded=0;" parent="1" vertex="1">
          <mxGeometry x="140" y="1210" width="180" height="30" as="geometry" />
        </mxCell>
        <mxCell id="lvxX25Y7_N13x5UYkTtY-1" value="" style="endArrow=classic;html=1;rounded=0;exitX=0.5;exitY=0;exitDx=0;exitDy=0;entryX=0.45;entryY=0.975;entryDx=0;entryDy=0;entryPerimeter=0;" edge="1" parent="1" source="lvxX25Y7_N13x5UYkTtY-2" target="zfn-MgXJD_NOxzqHw20s-2">
          <mxGeometry width="50" height="50" relative="1" as="geometry">
            <mxPoint x="940" y="460" as="sourcePoint" />
            <mxPoint x="220" y="270" as="targetPoint" />
            <Array as="points">
              <mxPoint x="940" y="320" />
              <mxPoint x="214" y="320" />
            </Array>
          </mxGeometry>
        </mxCell>
        <mxCell id="lvxX25Y7_N13x5UYkTtY-2" value="ClubID" style="rounded=0;whiteSpace=wrap;html=1;" vertex="1" parent="1">
          <mxGeometry x="880" y="400" width="120" height="60" as="geometry" />
        </mxCell>
        <mxCell id="lvxX25Y7_N13x5UYkTtY-4" value="" style="endArrow=classic;html=1;rounded=0;exitX=0.5;exitY=0;exitDx=0;exitDy=0;entryX=0.5;entryY=1;entryDx=0;entryDy=0;" edge="1" parent="1" source="zfn-MgXJD_NOxzqHw20s-37" target="zfn-MgXJD_NOxzqHw20s-25">
          <mxGeometry width="50" height="50" relative="1" as="geometry">
            <mxPoint x="806" y="808" as="sourcePoint" />
            <mxPoint x="80" y="670" as="targetPoint" />
            <Array as="points">
              <mxPoint x="580" y="740" />
              <mxPoint x="220" y="740" />
            </Array>
          </mxGeometry>
        </mxCell>
        <mxCell id="lvxX25Y7_N13x5UYkTtY-6" value="" style="endArrow=classic;html=1;rounded=0;exitX=0.5;exitY=0;exitDx=0;exitDy=0;entryX=0.5;entryY=1;entryDx=0;entryDy=0;" edge="1" parent="1" source="zfn-MgXJD_NOxzqHw20s-55" target="zfn-MgXJD_NOxzqHw20s-16">
          <mxGeometry width="50" height="50" relative="1" as="geometry">
            <mxPoint x="500" y="1170" as="sourcePoint" />
            <mxPoint x="1020" y="590" as="targetPoint" />
            <Array as="points">
              <mxPoint x="460" y="1190" />
              <mxPoint x="540" y="1190" />
              <mxPoint x="740" y="1190" />
              <mxPoint x="1050" y="1190" />
              <mxPoint x="1050" y="530" />
              <mxPoint x="220" y="530" />
            </Array>
          </mxGeometry>
        </mxCell>
        <mxCell id="lvxX25Y7_N13x5UYkTtY-8" value="" style="endArrow=classic;html=1;rounded=0;exitX=0.5;exitY=0;exitDx=0;exitDy=0;entryX=0.5;entryY=1;entryDx=0;entryDy=0;" edge="1" parent="1" source="zfn-MgXJD_NOxzqHw20s-54" target="zfn-MgXJD_NOxzqHw20s-25">
          <mxGeometry width="50" height="50" relative="1" as="geometry">
            <mxPoint x="300" y="1455" as="sourcePoint" />
            <mxPoint x="60" y="665" as="targetPoint" />
            <Array as="points">
              <mxPoint x="340" y="1170" />
              <mxPoint x="60" y="1170" />
              <mxPoint x="60" y="710" />
              <mxPoint x="220" y="710" />
            </Array>
          </mxGeometry>
        </mxCell>
        <mxCell id="lvxX25Y7_N13x5UYkTtY-15" value="" style="endArrow=classic;html=1;rounded=0;exitX=0.652;exitY=0.021;exitDx=0;exitDy=0;entryX=0.454;entryY=0.991;entryDx=0;entryDy=0;entryPerimeter=0;exitPerimeter=0;" edge="1" parent="1" source="zfn-MgXJD_NOxzqHw20s-43" target="zfn-MgXJD_NOxzqHw20s-2">
          <mxGeometry width="50" height="50" relative="1" as="geometry">
            <mxPoint x="310" y="1050" as="sourcePoint" />
            <mxPoint x="210" y="260" as="targetPoint" />
            <Array as="points">
              <mxPoint x="238" y="970" />
              <mxPoint x="30" y="970" />
              <mxPoint x="30" y="510" />
              <mxPoint x="30" y="320" />
              <mxPoint x="214" y="320" />
            </Array>
          </mxGeometry>
        </mxCell>
      </root>
    </mxGraphModel>
  </diagram>
  <diagram name="2NF" id="eI_3CUIgtIz0F-Wx5c-o">
    <mxGraphModel dx="954" dy="657" grid="1" gridSize="10" guides="1" tooltips="1" connect="1" arrows="1" fold="1" page="1" pageScale="1" pageWidth="1169" pageHeight="827" math="0" shadow="0">
      <root>
        <mxCell id="YbPO6E5GEMQuWTKtd4UB-0" />
        <mxCell id="YbPO6E5GEMQuWTKtd4UB-1" parent="YbPO6E5GEMQuWTKtd4UB-0" />
        <mxCell id="YbPO6E5GEMQuWTKtd4UB-2" value="&lt;u&gt;ClubID&lt;/u&gt;" style="rounded=0;whiteSpace=wrap;html=1;" vertex="1" parent="YbPO6E5GEMQuWTKtd4UB-1">
          <mxGeometry x="160" y="200" width="120" height="60" as="geometry" />
        </mxCell>
        <mxCell id="YbPO6E5GEMQuWTKtd4UB-3" value="ClubName" style="rounded=0;whiteSpace=wrap;html=1;" vertex="1" parent="YbPO6E5GEMQuWTKtd4UB-1">
          <mxGeometry x="280" y="200" width="120" height="60" as="geometry" />
        </mxCell>
        <mxCell id="YbPO6E5GEMQuWTKtd4UB-4" value="Type" style="rounded=0;whiteSpace=wrap;html=1;" vertex="1" parent="YbPO6E5GEMQuWTKtd4UB-1">
          <mxGeometry x="400" y="200" width="120" height="60" as="geometry" />
        </mxCell>
        <mxCell id="YbPO6E5GEMQuWTKtd4UB-5" value="MainActivities" style="rounded=0;whiteSpace=wrap;html=1;" vertex="1" parent="YbPO6E5GEMQuWTKtd4UB-1">
          <mxGeometry x="520" y="200" width="120" height="60" as="geometry" />
        </mxCell>
        <mxCell id="YbPO6E5GEMQuWTKtd4UB-6" value="FieldofResearch" style="rounded=0;whiteSpace=wrap;html=1;" vertex="1" parent="YbPO6E5GEMQuWTKtd4UB-1">
          <mxGeometry x="760" y="200" width="120" height="60" as="geometry" />
        </mxCell>
        <mxCell id="YbPO6E5GEMQuWTKtd4UB-7" value="FieldofActivity" style="rounded=0;whiteSpace=wrap;html=1;" vertex="1" parent="YbPO6E5GEMQuWTKtd4UB-1">
          <mxGeometry x="640" y="200" width="120" height="60" as="geometry" />
        </mxCell>
        <mxCell id="YbPO6E5GEMQuWTKtd4UB-8" value="Advisor" style="rounded=0;whiteSpace=wrap;html=1;" vertex="1" parent="YbPO6E5GEMQuWTKtd4UB-1">
          <mxGeometry x="880" y="200" width="120" height="60" as="geometry" />
        </mxCell>
        <mxCell id="YbPO6E5GEMQuWTKtd4UB-9" value="RoomNumber" style="rounded=0;whiteSpace=wrap;html=1;" vertex="1" parent="YbPO6E5GEMQuWTKtd4UB-1">
          <mxGeometry x="1000" y="200" width="120" height="60" as="geometry" />
        </mxCell>
        <mxCell id="YbPO6E5GEMQuWTKtd4UB-10" value="&lt;font style=&quot;font-size: 16px;&quot;&gt;&lt;b&gt;Club&lt;/b&gt;&lt;/font&gt;" style="text;html=1;align=center;verticalAlign=middle;whiteSpace=wrap;rounded=0;" vertex="1" parent="YbPO6E5GEMQuWTKtd4UB-1">
          <mxGeometry x="140" y="160" width="60" height="30" as="geometry" />
        </mxCell>
        <mxCell id="YbPO6E5GEMQuWTKtd4UB-11" value="&lt;u&gt;MemberId&lt;/u&gt;" style="rounded=0;whiteSpace=wrap;html=1;" vertex="1" parent="YbPO6E5GEMQuWTKtd4UB-1">
          <mxGeometry x="160" y="400" width="120" height="60" as="geometry" />
        </mxCell>
        <mxCell id="YbPO6E5GEMQuWTKtd4UB-12" value="Name" style="rounded=0;whiteSpace=wrap;html=1;" vertex="1" parent="YbPO6E5GEMQuWTKtd4UB-1">
          <mxGeometry x="280" y="400" width="120" height="60" as="geometry" />
        </mxCell>
        <mxCell id="YbPO6E5GEMQuWTKtd4UB-13" value="StudentID" style="rounded=0;whiteSpace=wrap;html=1;" vertex="1" parent="YbPO6E5GEMQuWTKtd4UB-1">
          <mxGeometry x="400" y="400" width="120" height="60" as="geometry" />
        </mxCell>
        <mxCell id="YbPO6E5GEMQuWTKtd4UB-14" value="PhoneNumber" style="rounded=0;whiteSpace=wrap;html=1;" vertex="1" parent="YbPO6E5GEMQuWTKtd4UB-1">
          <mxGeometry x="520" y="400" width="120" height="60" as="geometry" />
        </mxCell>
        <mxCell id="YbPO6E5GEMQuWTKtd4UB-15" value="MemberType" style="rounded=0;whiteSpace=wrap;html=1;" vertex="1" parent="YbPO6E5GEMQuWTKtd4UB-1">
          <mxGeometry x="760" y="400" width="120" height="60" as="geometry" />
        </mxCell>
        <mxCell id="YbPO6E5GEMQuWTKtd4UB-16" value="Major" style="rounded=0;whiteSpace=wrap;html=1;" vertex="1" parent="YbPO6E5GEMQuWTKtd4UB-1">
          <mxGeometry x="640" y="400" width="120" height="60" as="geometry" />
        </mxCell>
        <mxCell id="YbPO6E5GEMQuWTKtd4UB-17" value="&lt;font style=&quot;font-size: 16px;&quot;&gt;&lt;b&gt;Member&lt;/b&gt;&lt;/font&gt;" style="text;html=1;align=center;verticalAlign=middle;whiteSpace=wrap;rounded=0;" vertex="1" parent="YbPO6E5GEMQuWTKtd4UB-1">
          <mxGeometry x="140" y="360" width="90" height="30" as="geometry" />
        </mxCell>
        <mxCell id="YbPO6E5GEMQuWTKtd4UB-18" value="&lt;u&gt;EmployeeID&lt;/u&gt;" style="rounded=0;whiteSpace=wrap;html=1;" vertex="1" parent="YbPO6E5GEMQuWTKtd4UB-1">
          <mxGeometry x="160" y="610" width="120" height="60" as="geometry" />
        </mxCell>
        <mxCell id="YbPO6E5GEMQuWTKtd4UB-19" value="Name" style="rounded=0;whiteSpace=wrap;html=1;" vertex="1" parent="YbPO6E5GEMQuWTKtd4UB-1">
          <mxGeometry x="280" y="610" width="120" height="60" as="geometry" />
        </mxCell>
        <mxCell id="YbPO6E5GEMQuWTKtd4UB-20" value="PhoneNumber" style="rounded=0;whiteSpace=wrap;html=1;" vertex="1" parent="YbPO6E5GEMQuWTKtd4UB-1">
          <mxGeometry x="400" y="610" width="120" height="60" as="geometry" />
        </mxCell>
        <mxCell id="YbPO6E5GEMQuWTKtd4UB-21" value="Email" style="rounded=0;whiteSpace=wrap;html=1;" vertex="1" parent="YbPO6E5GEMQuWTKtd4UB-1">
          <mxGeometry x="520" y="610" width="120" height="60" as="geometry" />
        </mxCell>
        <mxCell id="YbPO6E5GEMQuWTKtd4UB-22" value="RoomNumber" style="rounded=0;whiteSpace=wrap;html=1;" vertex="1" parent="YbPO6E5GEMQuWTKtd4UB-1">
          <mxGeometry x="760" y="610" width="120" height="60" as="geometry" />
        </mxCell>
        <mxCell id="YbPO6E5GEMQuWTKtd4UB-23" value="Type" style="rounded=0;whiteSpace=wrap;html=1;" vertex="1" parent="YbPO6E5GEMQuWTKtd4UB-1">
          <mxGeometry x="640" y="610" width="120" height="60" as="geometry" />
        </mxCell>
        <mxCell id="YbPO6E5GEMQuWTKtd4UB-24" value="&lt;font style=&quot;font-size: 16px;&quot;&gt;&lt;b&gt;Employee&lt;/b&gt;&lt;/font&gt;" style="text;html=1;align=center;verticalAlign=middle;whiteSpace=wrap;rounded=0;" vertex="1" parent="YbPO6E5GEMQuWTKtd4UB-1">
          <mxGeometry x="140" y="570" width="100" height="30" as="geometry" />
        </mxCell>
        <mxCell id="YbPO6E5GEMQuWTKtd4UB-25" value="&lt;u&gt;RoomID&lt;/u&gt;" style="rounded=0;whiteSpace=wrap;html=1;" vertex="1" parent="YbPO6E5GEMQuWTKtd4UB-1">
          <mxGeometry x="160" y="810" width="120" height="60" as="geometry" />
        </mxCell>
        <mxCell id="YbPO6E5GEMQuWTKtd4UB-26" value="&lt;u&gt;Date&lt;/u&gt;" style="rounded=0;whiteSpace=wrap;html=1;" vertex="1" parent="YbPO6E5GEMQuWTKtd4UB-1">
          <mxGeometry x="280" y="810" width="120" height="60" as="geometry" />
        </mxCell>
        <mxCell id="YbPO6E5GEMQuWTKtd4UB-27" value="Personin&lt;div&gt;charge&lt;/div&gt;" style="rounded=0;whiteSpace=wrap;html=1;" vertex="1" parent="YbPO6E5GEMQuWTKtd4UB-1">
          <mxGeometry x="400" y="810" width="120" height="60" as="geometry" />
        </mxCell>
        <mxCell id="YbPO6E5GEMQuWTKtd4UB-28" value="&lt;font color=&quot;#3333ff&quot;&gt;AdminStaffID&lt;/font&gt;" style="rounded=0;whiteSpace=wrap;html=1;" vertex="1" parent="YbPO6E5GEMQuWTKtd4UB-1">
          <mxGeometry x="640" y="810" width="120" height="60" as="geometry" />
        </mxCell>
        <mxCell id="YbPO6E5GEMQuWTKtd4UB-29" value="NumberOf&lt;br&gt;EmptyRooms" style="rounded=0;whiteSpace=wrap;html=1;" vertex="1" parent="YbPO6E5GEMQuWTKtd4UB-1">
          <mxGeometry x="520" y="810" width="120" height="60" as="geometry" />
        </mxCell>
        <mxCell id="YbPO6E5GEMQuWTKtd4UB-30" value="&lt;font style=&quot;font-size: 16px;&quot;&gt;&lt;b&gt;Rented Room&lt;/b&gt;&lt;/font&gt;" style="text;html=1;align=center;verticalAlign=middle;whiteSpace=wrap;rounded=0;" vertex="1" parent="YbPO6E5GEMQuWTKtd4UB-1">
          <mxGeometry x="130" y="770" width="150" height="30" as="geometry" />
        </mxCell>
        <mxCell id="YbPO6E5GEMQuWTKtd4UB-31" value="&lt;u&gt;ClubId&lt;/u&gt;" style="rounded=0;whiteSpace=wrap;html=1;" vertex="1" parent="YbPO6E5GEMQuWTKtd4UB-1">
          <mxGeometry x="160" y="1070" width="120" height="60" as="geometry" />
        </mxCell>
        <mxCell id="YbPO6E5GEMQuWTKtd4UB-32" value="&lt;u&gt;ProjectID&lt;/u&gt;" style="rounded=0;whiteSpace=wrap;html=1;" vertex="1" parent="YbPO6E5GEMQuWTKtd4UB-1">
          <mxGeometry x="280" y="1070" width="120" height="60" as="geometry" />
        </mxCell>
        <mxCell id="YbPO6E5GEMQuWTKtd4UB-33" value="ProjectName" style="rounded=0;whiteSpace=wrap;html=1;" vertex="1" parent="YbPO6E5GEMQuWTKtd4UB-1">
          <mxGeometry x="400" y="1070" width="120" height="60" as="geometry" />
        </mxCell>
        <mxCell id="YbPO6E5GEMQuWTKtd4UB-34" value="Goal" style="rounded=0;whiteSpace=wrap;html=1;" vertex="1" parent="YbPO6E5GEMQuWTKtd4UB-1">
          <mxGeometry x="520" y="1070" width="120" height="60" as="geometry" />
        </mxCell>
        <mxCell id="YbPO6E5GEMQuWTKtd4UB-35" value="&lt;font style=&quot;font-size: 16px;&quot;&gt;&lt;b&gt;Proceed&lt;/b&gt;&lt;/font&gt;" style="text;html=1;align=center;verticalAlign=middle;whiteSpace=wrap;rounded=0;" vertex="1" parent="YbPO6E5GEMQuWTKtd4UB-1">
          <mxGeometry x="140" y="1030" width="90" height="30" as="geometry" />
        </mxCell>
        <mxCell id="YbPO6E5GEMQuWTKtd4UB-36" value="&lt;u&gt;SuggestionID&lt;/u&gt;" style="rounded=0;whiteSpace=wrap;html=1;" vertex="1" parent="YbPO6E5GEMQuWTKtd4UB-1">
          <mxGeometry x="160" y="1290" width="120" height="60" as="geometry" />
        </mxCell>
        <mxCell id="YbPO6E5GEMQuWTKtd4UB-37" value="Content" style="rounded=0;whiteSpace=wrap;html=1;" vertex="1" parent="YbPO6E5GEMQuWTKtd4UB-1">
          <mxGeometry x="280" y="1290" width="120" height="60" as="geometry" />
        </mxCell>
        <mxCell id="YbPO6E5GEMQuWTKtd4UB-38" value="&lt;font color=&quot;#3333ff&quot;&gt;EmployeeID&lt;/font&gt;" style="rounded=0;whiteSpace=wrap;html=1;" vertex="1" parent="YbPO6E5GEMQuWTKtd4UB-1">
          <mxGeometry x="400" y="1290" width="120" height="60" as="geometry" />
        </mxCell>
        <mxCell id="YbPO6E5GEMQuWTKtd4UB-39" value="&lt;font color=&quot;#3333ff&quot;&gt;MemberID&lt;/font&gt;" style="rounded=0;whiteSpace=wrap;html=1;" vertex="1" parent="YbPO6E5GEMQuWTKtd4UB-1">
          <mxGeometry x="520" y="1290" width="120" height="60" as="geometry" />
        </mxCell>
        <mxCell id="YbPO6E5GEMQuWTKtd4UB-40" value="&lt;font style=&quot;font-size: 16px;&quot;&gt;&lt;b&gt;Make_A_Suggestion&lt;/b&gt;&lt;/font&gt;" style="text;html=1;align=center;verticalAlign=middle;whiteSpace=wrap;rounded=0;" vertex="1" parent="YbPO6E5GEMQuWTKtd4UB-1">
          <mxGeometry x="140" y="1250" width="180" height="30" as="geometry" />
        </mxCell>
        <mxCell id="YbPO6E5GEMQuWTKtd4UB-41" value="" style="endArrow=classic;html=1;rounded=0;exitX=0.5;exitY=0;exitDx=0;exitDy=0;entryX=0.45;entryY=0.975;entryDx=0;entryDy=0;entryPerimeter=0;" edge="1" parent="YbPO6E5GEMQuWTKtd4UB-1" source="YbPO6E5GEMQuWTKtd4UB-42" target="YbPO6E5GEMQuWTKtd4UB-2">
          <mxGeometry width="50" height="50" relative="1" as="geometry">
            <mxPoint x="940" y="460" as="sourcePoint" />
            <mxPoint x="220" y="270" as="targetPoint" />
            <Array as="points">
              <mxPoint x="940" y="320" />
              <mxPoint x="214" y="320" />
            </Array>
          </mxGeometry>
        </mxCell>
        <mxCell id="YbPO6E5GEMQuWTKtd4UB-42" value="&lt;font color=&quot;#3333ff&quot;&gt;ClubID&lt;/font&gt;" style="rounded=0;whiteSpace=wrap;html=1;" vertex="1" parent="YbPO6E5GEMQuWTKtd4UB-1">
          <mxGeometry x="880" y="400" width="120" height="60" as="geometry" />
        </mxCell>
        <mxCell id="YbPO6E5GEMQuWTKtd4UB-43" value="" style="endArrow=classic;html=1;rounded=0;exitX=0.5;exitY=0;exitDx=0;exitDy=0;entryX=0.5;entryY=1;entryDx=0;entryDy=0;" edge="1" parent="YbPO6E5GEMQuWTKtd4UB-1" source="YbPO6E5GEMQuWTKtd4UB-28" target="YbPO6E5GEMQuWTKtd4UB-18">
          <mxGeometry width="50" height="50" relative="1" as="geometry">
            <mxPoint x="806" y="808" as="sourcePoint" />
            <mxPoint x="80" y="670" as="targetPoint" />
            <Array as="points">
              <mxPoint x="700" y="740" />
              <mxPoint x="220" y="740" />
            </Array>
          </mxGeometry>
        </mxCell>
        <mxCell id="YbPO6E5GEMQuWTKtd4UB-44" value="" style="endArrow=classic;html=1;rounded=0;exitX=0.5;exitY=0;exitDx=0;exitDy=0;entryX=0.5;entryY=1;entryDx=0;entryDy=0;" edge="1" parent="YbPO6E5GEMQuWTKtd4UB-1" source="YbPO6E5GEMQuWTKtd4UB-39" target="YbPO6E5GEMQuWTKtd4UB-11">
          <mxGeometry width="50" height="50" relative="1" as="geometry">
            <mxPoint x="500" y="1170" as="sourcePoint" />
            <mxPoint x="1020" y="590" as="targetPoint" />
            <Array as="points">
              <mxPoint x="580" y="1190" />
              <mxPoint x="740" y="1190" />
              <mxPoint x="1050" y="1190" />
              <mxPoint x="1050" y="530" />
              <mxPoint x="220" y="530" />
            </Array>
          </mxGeometry>
        </mxCell>
        <mxCell id="YbPO6E5GEMQuWTKtd4UB-45" value="" style="endArrow=classic;html=1;rounded=0;exitX=0.5;exitY=0;exitDx=0;exitDy=0;entryX=0.5;entryY=1;entryDx=0;entryDy=0;" edge="1" parent="YbPO6E5GEMQuWTKtd4UB-1" source="YbPO6E5GEMQuWTKtd4UB-38" target="YbPO6E5GEMQuWTKtd4UB-18">
          <mxGeometry width="50" height="50" relative="1" as="geometry">
            <mxPoint x="300" y="1455" as="sourcePoint" />
            <mxPoint x="60" y="665" as="targetPoint" />
            <Array as="points">
              <mxPoint x="460" y="1200" />
              <mxPoint x="90" y="1200" />
              <mxPoint x="90" y="950" />
              <mxPoint x="90" y="710" />
              <mxPoint x="220" y="710" />
            </Array>
          </mxGeometry>
        </mxCell>
        <mxCell id="YbPO6E5GEMQuWTKtd4UB-46" value="" style="endArrow=classic;html=1;rounded=0;exitX=0.652;exitY=0.021;exitDx=0;exitDy=0;entryX=0.454;entryY=0.991;entryDx=0;entryDy=0;entryPerimeter=0;exitPerimeter=0;" edge="1" parent="YbPO6E5GEMQuWTKtd4UB-1" source="YbPO6E5GEMQuWTKtd4UB-31" target="YbPO6E5GEMQuWTKtd4UB-2">
          <mxGeometry width="50" height="50" relative="1" as="geometry">
            <mxPoint x="310" y="1050" as="sourcePoint" />
            <mxPoint x="210" y="260" as="targetPoint" />
            <Array as="points">
              <mxPoint x="238" y="1010" />
              <mxPoint x="130" y="1010" />
              <mxPoint x="30" y="1010" />
              <mxPoint x="30" y="510" />
              <mxPoint x="30" y="320" />
              <mxPoint x="214" y="320" />
            </Array>
          </mxGeometry>
        </mxCell>
        <mxCell id="QbKE28ErNiuw_3WYh9G--0" value="&lt;u&gt;RoomID&lt;/u&gt;" style="rounded=0;whiteSpace=wrap;html=1;" vertex="1" parent="YbPO6E5GEMQuWTKtd4UB-1">
          <mxGeometry x="160" y="930" width="120" height="60" as="geometry" />
        </mxCell>
        <mxCell id="QbKE28ErNiuw_3WYh9G--1" value="Date" style="rounded=0;whiteSpace=wrap;html=1;" vertex="1" parent="YbPO6E5GEMQuWTKtd4UB-1">
          <mxGeometry x="280" y="930" width="120" height="60" as="geometry" />
        </mxCell>
        <mxCell id="QbKE28ErNiuw_3WYh9G--2" value="Personin&lt;div&gt;charge&lt;/div&gt;" style="rounded=0;whiteSpace=wrap;html=1;" vertex="1" parent="YbPO6E5GEMQuWTKtd4UB-1">
          <mxGeometry x="400" y="930" width="120" height="60" as="geometry" />
        </mxCell>
        <mxCell id="QbKE28ErNiuw_3WYh9G--3" value="&lt;font color=&quot;#3333ff&quot;&gt;AdminStaffID&lt;/font&gt;" style="rounded=0;whiteSpace=wrap;html=1;" vertex="1" parent="YbPO6E5GEMQuWTKtd4UB-1">
          <mxGeometry x="520" y="930" width="120" height="60" as="geometry" />
        </mxCell>
        <mxCell id="QbKE28ErNiuw_3WYh9G--4" value="NumberOf&lt;br&gt;EmptyRooms" style="rounded=0;whiteSpace=wrap;html=1;" vertex="1" parent="YbPO6E5GEMQuWTKtd4UB-1">
          <mxGeometry x="640" y="930" width="120" height="60" as="geometry" />
        </mxCell>
        <mxCell id="QbKE28ErNiuw_3WYh9G--5" value="&lt;font style=&quot;font-size: 16px;&quot;&gt;&lt;b&gt;Rented Room&lt;/b&gt;&lt;/font&gt;" style="text;html=1;align=center;verticalAlign=middle;whiteSpace=wrap;rounded=0;" vertex="1" parent="YbPO6E5GEMQuWTKtd4UB-1">
          <mxGeometry x="130" y="900" width="150" height="30" as="geometry" />
        </mxCell>
      </root>
    </mxGraphModel>
  </diagram>
</mxfile>
